<?xml version="1.0" encoding="UTF-8" standalone="no"?>
<!-- Created with Inkscape (http://www.inkscape.org/) -->

<svg
   xmlns:dc="http://purl.org/dc/elements/1.1/"
   xmlns:cc="http://creativecommons.org/ns#"
   xmlns:rdf="http://www.w3.org/1999/02/22-rdf-syntax-ns#"
   xmlns:svg="http://www.w3.org/2000/svg"
   xmlns="http://www.w3.org/2000/svg"
   xmlns:sodipodi="http://sodipodi.sourceforge.net/DTD/sodipodi-0.dtd"
   xmlns:inkscape="http://www.inkscape.org/namespaces/inkscape"
   id="svg2"
   version="1.1"
   inkscape:version="0.91 r13725"
   xml:space="preserve"
   width="333.75"
   height="121.25"
   viewBox="0 0 333.75 121.25"
   sodipodi:docname="beta2.svg"><metadata
     id="metadata8"><rdf:RDF><cc:Work
         rdf:about=""><dc:format>image/svg+xml</dc:format><dc:type
           rdf:resource="http://purl.org/dc/dcmitype/StillImage" /><dc:title></dc:title></cc:Work></rdf:RDF></metadata><defs
     id="defs6" /><sodipodi:namedview
     pagecolor="#ffffff"
     bordercolor="#666666"
     borderopacity="1"
     objecttolerance="10"
     gridtolerance="10"
     guidetolerance="10"
     inkscape:pageopacity="0"
     inkscape:pageshadow="2"
     inkscape:window-width="640"
     inkscape:window-height="480"
     id="namedview4"
     showgrid="false"
     inkscape:zoom="1.1565543"
     inkscape:cx="166.875"
     inkscape:cy="60.625"
     inkscape:window-x="0"
     inkscape:window-y="27"
     inkscape:window-maximized="0"
     inkscape:current-layer="g10" /><g
     id="g10"
     inkscape:groupmode="layer"
     inkscape:label="ink_ext_XXXXXX"
     transform="matrix(1.25,0,0,-1.25,0,121.25)"><g
       id="g12"
       transform="scale(0.1,0.1)"><path
         d="m 638.277,225.234 c -77.5,-117.5 -185,-167.4996 -297.5,-177.4996 -112.5,-10 -327.4997,30 -327.4997,199.9996 0,170 217.4997,177.5 259.9997,180 42.5,2.5 742.503,-22.5 805.003,-42.5 62.5,-20 195,-67.5 195,-172.5 0,-105 -132.5,-222.49963 -342.503,-187.4996 -210,35 -292.5,199.9996 -292.5,199.9996"
         style="fill:#e0ded9;fill-opacity:1;fill-rule:nonzero;stroke:none"
         id="path14"
         inkscape:connector-curvature="0" /><path
         d="m 638.277,225.234 c -77.5,-117.5 -185,-167.4996 -297.5,-177.4996 -112.5,-10 -327.4997,30 -327.4997,199.9996 0,170 217.4997,177.5 259.9997,180 42.5,2.5 742.503,-22.5 805.003,-42.5 62.5,-20 195,-67.5 195,-172.5 0,-105 -132.5,-222.49963 -342.503,-187.4996 -210,35 -292.5,199.9996 -292.5,199.9996 z"
         style="fill:none;stroke:#231f20;stroke-width:10;stroke-linecap:butt;stroke-linejoin:miter;stroke-miterlimit:3.86370993;stroke-dasharray:none;stroke-opacity:1"
         id="path16"
         inkscape:connector-curvature="0" /><path
         d="m 590.777,335.234 c -107.5,5 -360,10 -402.5,-5 -42.5,-15 -124.9997,-37.5 -82.5,-130 42.5,-92.5 162.5,-75 205,-77.5 42.5,-2.5 152.551,45.567 192.5,75 47.5,35 87.5,137.5 87.5,137.5"
         style="fill:#ffffff;fill-opacity:1;fill-rule:nonzero;stroke:none"
         id="path18"
         inkscape:connector-curvature="0" /><path
         d="m 590.777,335.234 c -107.5,5 -360,10 -402.5,-5 -42.5,-15 -124.9997,-37.5 -82.5,-130 42.5,-92.5 162.5,-75 205,-77.5 42.5,-2.5 152.551,45.567 192.5,75 47.5,35 87.5,137.5 87.5,137.5 z"
         style="fill:none;stroke:#231f20;stroke-width:10;stroke-linecap:butt;stroke-linejoin:miter;stroke-miterlimit:3.86370993;stroke-dasharray:none;stroke-opacity:1"
         id="path20"
         inkscape:connector-curvature="0" /><path
         d="m 695.777,327.734 c 150,-5 310.003,-5 402.503,-32.5 92.5,-27.5 107.5,-95 62.5,-147.5 -45,-52.4996 -117.5,-54.9996 -180.003,-47.5 -62.5,7.5 -175,40 -225,105 -50,65 -60,122.5 -60,122.5"
         style="fill:#ffffff;fill-opacity:1;fill-rule:nonzero;stroke:none"
         id="path22"
         inkscape:connector-curvature="0" /><path
         d="m 695.777,327.734 c 150,-5 310.003,-5 402.503,-32.5 92.5,-27.5 107.5,-95 62.5,-147.5 -45,-52.4996 -117.5,-54.9996 -180.003,-47.5 -62.5,7.5 -175,40 -225,105 -50,65 -60,122.5 -60,122.5 z"
         style="fill:none;stroke:#231f20;stroke-width:10;stroke-linecap:butt;stroke-linejoin:miter;stroke-miterlimit:3.86370993;stroke-dasharray:none;stroke-opacity:1"
         id="path24"
         inkscape:connector-curvature="0" /><path
         d="m 636.863,159.398 c 0,0 132.5,97.5 182.5,177.5 50,80 82.5,170 15,237.5 -67.5,67.5 -137.5,55 -200,55 -62.5,0 -115,10 -177.5,-47.5 -62.5,-57.5 -25,-177.5 5,-230 30,-52.5 102.5,-117.5 175,-192.5 z m 0,540 c 100,0 182.5,10 247.5,-57.5 65,-67.5 77.5,-162.5 55,-242.5 -22.5,-80 -130,-190 -177.5,-235 -47.5,-45 -102.5,-117.4996 -120,-137.4996 -25,25 -50,67.5 -95,109.9996 -45,42.5 -172.5,140 -200,265 -27.5,125 5,195 57.5,245 54.098,51.524 132.629,54.872 232.5,52.5"
         style="fill:#b6b5b2;fill-opacity:1;fill-rule:evenodd;stroke:none"
         id="path26"
         inkscape:connector-curvature="0" /><path
         d="m 636.863,159.398 c 0,0 132.5,97.5 182.5,177.5 50,80 82.5,170 15,237.5 -67.5,67.5 -137.5,55 -200,55 -62.5,0 -115,10 -177.5,-47.5 -62.5,-57.5 -25,-177.5 5,-230 30,-52.5 102.5,-117.5 175,-192.5 z"
         style="fill:none;stroke:#000000;stroke-width:10;stroke-linecap:butt;stroke-linejoin:miter;stroke-miterlimit:3.86370993;stroke-dasharray:none;stroke-opacity:1"
         id="path28"
         inkscape:connector-curvature="0" /><path
         d="m 636.863,699.398 c 100,0 182.5,10 247.5,-57.5 65,-67.5 77.5,-162.5 55,-242.5 -22.5,-80 -130,-190 -177.5,-235 -47.5,-45 -102.5,-117.4996 -120,-137.4996 -25,25 -50,67.5 -95,109.9996 -45,42.5 -172.5,140 -200,265 -27.5,125 5,195 57.5,245 54.098,51.524 132.629,54.872 232.5,52.5 z"
         style="fill:none;stroke:#000000;stroke-width:10;stroke-linecap:butt;stroke-linejoin:miter;stroke-miterlimit:3.86370993;stroke-dasharray:none;stroke-opacity:1"
         id="path30"
         inkscape:connector-curvature="0" /><path
         d="m 2081.63,316.629 c 0,0 10,-57.5 60,-122.5 50,-65 162.5,-97.5001 225,-105.0001 62.5,-7.5 135,-5 180,47.5001 45,52.5 30,120 -62.5,147.5 -92.5,27.5 -252.5,27.5 -402.5,32.5 z m -105,7.5 c -107.5,5 -360,10 -402.5,-5 -42.5,-15 -125,-37.5 -82.5,-130 42.5,-92.5001 162.5,-75 205,-77.5 42.5,-2.5 152.55,45.566 192.5,75 47.5,35 87.5,137.5 87.5,137.5 z m 50.55,93.644 c 0,0 132.5,97.5 182.5,177.5 50,80 82.5,170 15,237.5 -67.5,67.5 -137.5,55 -200,55 -62.5,0 -115,10 -177.5,-47.5 -62.5,-57.5 -25,-177.5 5,-230 30,-52.5 102.5,-117.5 175,-192.5 z m 0,540 c 100,0 182.5,10 247.5,-57.5 65,-67.5 77.5,-162.5 55,-242.5 -22.5,-80 -130,-190 -177.5,-235 -7.33,-6.945 -14.84,-14.546 -22.36,-22.503 160.85,-7.895 307.27,-17.485 334.31,-26.141 62.5,-20 195,-67.5 195,-172.5 0,-105.0001 -132.5,-222.5001 -342.5,-187.5001 -210,35 -292.5,200.0001 -292.5,200.0001 -77.5,-117.5001 -185,-167.5001 -297.5,-177.5001 -112.5,-10 -327.5,30 -327.5,200.0001 0,170 217.5,177.5 260,180 16.17,0.953 127.45,-2.074 262.6,-7.293 -53.6,47.824 -159.75,138.195 -184.55,250.937 -27.5,125 5,195 57.5,245 54.1,51.52 132.62,54.868 232.5,52.5"
         style="fill:#b6b5b2;fill-opacity:1;fill-rule:nonzero;stroke:none"
         id="path32"
         inkscape:connector-curvature="0" /><path
         d="m 2081.63,316.629 c 0,0 10,-57.5 60,-122.5 50,-65 162.5,-97.5001 225,-105.0001 62.5,-7.5 135,-5 180,47.5001 45,52.5 30,120 -62.5,147.5 -92.5,27.5 -252.5,27.5 -402.5,32.5 z"
         style="fill:none;stroke:#000000;stroke-width:10;stroke-linecap:butt;stroke-linejoin:miter;stroke-miterlimit:3.86370993;stroke-dasharray:none;stroke-opacity:1"
         id="path34"
         inkscape:connector-curvature="0" /><path
         d="m 1976.63,324.129 c -107.5,5 -360,10 -402.5,-5 -42.5,-15 -125,-37.5 -82.5,-130 42.5,-92.5001 162.5,-75 205,-77.5 42.5,-2.5 152.55,45.566 192.5,75 47.5,35 87.5,137.5 87.5,137.5 z"
         style="fill:none;stroke:#000000;stroke-width:10;stroke-linecap:butt;stroke-linejoin:miter;stroke-miterlimit:3.86370993;stroke-dasharray:none;stroke-opacity:1"
         id="path36"
         inkscape:connector-curvature="0" /><path
         d="m 2027.18,417.773 c 0,0 132.5,97.5 182.5,177.5 50,80 82.5,170 15,237.5 -67.5,67.5 -137.5,55 -200,55 -62.5,0 -115,10 -177.5,-47.5 -62.5,-57.5 -25,-177.5 5,-230 30,-52.5 102.5,-117.5 175,-192.5 z"
         style="fill:none;stroke:#000000;stroke-width:10;stroke-linecap:butt;stroke-linejoin:miter;stroke-miterlimit:3.86370993;stroke-dasharray:none;stroke-opacity:1"
         id="path38"
         inkscape:connector-curvature="0" /><path
         d="m 2027.18,957.773 c 100,0 182.5,10 247.5,-57.5 65,-67.5 77.5,-162.5 55,-242.5 -22.5,-80 -130,-190 -177.5,-235 -7.33,-6.945 -14.84,-14.546 -22.36,-22.503 160.85,-7.895 307.27,-17.485 334.31,-26.141 62.5,-20 195,-67.5 195,-172.5 0,-105.0001 -132.5,-222.5001 -342.5,-187.5001 -210,35 -292.5,200.0001 -292.5,200.0001 -77.5,-117.5001 -185,-167.5001 -297.5,-177.5001 -112.5,-10 -327.5,30 -327.5,200.0001 0,170 217.5,177.5 260,180 16.17,0.953 127.45,-2.074 262.6,-7.293 -53.6,47.824 -159.75,138.195 -184.55,250.937 -27.5,125 5,195 57.5,245 54.1,51.52 132.62,54.868 232.5,52.5 z"
         style="fill:none;stroke:#000000;stroke-width:10;stroke-linecap:butt;stroke-linejoin:miter;stroke-miterlimit:3.86370993;stroke-dasharray:none;stroke-opacity:1"
         id="path40"
         inkscape:connector-curvature="0" /></g></g></svg>